<svg xmlns="http://www.w3.org/2000/svg" aria-hidden="true" style="position: absolute; width: 0; height: 0; overflow: hidden;">
  <defs>
    <symbol id="icon-Vector-A" viewBox="0 0 35 32">
      <path d="M32.384 31.053c-1.12.245-2.12.421-2.995.525-.843.107-1.84.16-2.995.16-3.363 0-5.571-1.088-6.621-3.259a18.486 18.486 0 0 1-4.288 2.425l-.126.044a13.233 13.233 0 0 1-4.685.841l-.158-.001h.008l-.142.001a8.936 8.936 0 0 1-4.164-1.022l.049.024a7.584 7.584 0 0 1-2.926-2.65l-.018-.03a6.744 6.744 0 0 1-1.051-3.634v-.049.003c0-2.24.56-4.011 1.68-5.307 1.157-1.331 2.699-2.381 4.627-3.152 1.925-.805 4.853-1.768 8.773-2.891l1.579-.469v-.213c0-3.221-1.472-4.835-4.416-4.835-1.435 0-2.976.317-4.624.947-1.645.632-3.536 1.648-5.675 3.048L2.483 5.252c2.381-1.365 4.8-2.435 7.253-3.205C12.05 1.314 14.711.892 17.471.892h.15-.008c3.363 0 5.939.912 7.725 2.733 1.821 1.821 2.731 4.939 2.731 9.352v9.984c0 .771.16 1.331.475 1.68.315.317.821.475 1.52.475.667 0 1.333-.088 2-.264l.315 6.2zm-20.965-7.826c0 .701.176 1.211.525 1.525.384.315.981.472 1.787.472 1.472 0 3.205-.629 5.2-1.893V17.76l-.787.264c-2.627.944-4.413 1.787-5.36 2.52-.909.701-1.365 1.595-1.365 2.68z"/>
    </symbol>
    <symbol id="icon-Vector-a2" viewBox="0 0 32 32">
      <path d="M30.131 31.053c-1.12.245-2.12.421-2.997.525-.84.107-1.84.16-2.995.16-3.36 0-5.571-1.088-6.621-3.259a18.486 18.486 0 0 1-4.288 2.425l-.126.044a13.233 13.233 0 0 1-4.685.841l-.158-.001h.008l-.142.001a8.936 8.936 0 0 1-4.164-1.022l.049.024a7.576 7.576 0 0 1-2.923-2.65l-.018-.03A6.744 6.744 0 0 1 .02 24.477v-.049.003c0-2.24.56-4.011 1.68-5.307 1.157-1.331 2.699-2.381 4.624-3.152 1.928-.805 4.853-1.768 8.776-2.891l1.576-.472v-.211c0-3.221-1.472-4.835-4.413-4.835-1.437 0-2.979.317-4.624.947-1.645.632-3.539 1.648-5.675 3.048L.231 5.251c2.381-1.365 4.8-2.435 7.251-3.205C9.796 1.313 12.458.891 15.218.891h.155-.008c3.36 0 5.936.912 7.723 2.733 1.821 1.821 2.733 4.939 2.733 9.352v9.984c0 .771.157 1.331.472 1.68.315.317.824.475 1.525.475.667 0 1.331-.088 1.995-.264l.317 6.2zM9.163 23.227c0 .701.176 1.211.525 1.525.387.315.981.472 1.787.472 1.472 0 3.205-.629 5.203-1.893V17.76l-.787.264c-2.629.944-4.416 1.787-5.36 2.52-.912.701-1.368 1.595-1.368 2.68z"/>
    </symbol>
    <symbol id="icon-Vector-C" viewBox="0 0 30 32">
      <path d="M18.702 32c-3.723 0-6.875-.72-9.458-2.162-2.583-1.47-4.519-3.406-5.81-5.81-1.192-2.261-1.891-4.94-1.891-7.783l.001-.151v.008c0-2.823.661-5.433 1.982-7.835 1.349-2.402 3.346-4.325 5.989-5.765C12.162 1.06 15.341.34 19.065.34c3.483 0 6.546.674 9.189 2.025L26.631 8.04c-.987-.52-2.138-.98-3.34-1.318l-.127-.031c-1.2-.366-2.567-.542-4.098-.542-1.952 0-3.648.45-5.09 1.349a8.638 8.638 0 0 0-3.219 3.554l-.022.051c-.722 1.502-1.081 3.184-1.081 5.045 0 2.942.779 5.36 2.341 7.25 1.561 1.863 3.799 2.793 6.711 2.793 2.491 0 5.179-.617 8.062-1.847l1.531 5.541c-1.23.631-2.702 1.143-4.411 1.531-1.714.389-3.44.585-5.182.585z"/>
    </symbol>
    <symbol id="icon-Vector-E" viewBox="0 0 32 32">
      <path d="M10.741 18.128c.176 2.488.789 4.325 1.84 5.517s2.661 1.787 4.835 1.787l.121.001c1.566 0 3.059-.309 4.423-.869l-.078.028c1.4-.597 2.995-1.472 4.781-2.629l2.469 5.781c-1.856 1.507-3.696 2.592-5.52 3.259-1.819.667-3.904.997-6.251.997-3.467 0-6.373-.667-8.72-1.997-2.349-1.365-4.101-3.205-5.256-5.517-1.12-2.347-1.68-5.008-1.68-7.987 0-4.728 1.328-8.512 3.992-11.349C8.358 2.313 12.246.894 17.358.894c4.064 0 7.147 1.104 9.248 3.309 2.136 2.173 3.224 5.272 3.259 9.301 0 1.576-.229 3.12-.683 4.624H10.739zm10.248-5.939a5.29 5.29 0 0 0 .053-.84c-.037-1.435-.421-2.523-1.157-3.259-.736-.771-1.752-1.155-3.048-1.155-3.083 0-5.008 1.752-5.779 5.253h9.928z"/>
    </symbol>
    <symbol id="icon-Vector-L" viewBox="0 0 10 32">
      <path d="M1.568 0h6.856v31.528H1.568V0z"/>
    </symbol>
    <symbol id="icon-Vector-N" viewBox="0 0 32 32">
      <path d="M19.173.893c3.888 0 6.568 1.032 8.04 3.101 1.507 2.067 2.259 5.043 2.259 8.933V31.37h-9.141V14.079c0-2.453-.299-4.152-.893-5.099-.56-.944-1.664-1.419-3.312-1.419-1.787 0-3.608.597-5.464 1.787v22.019H1.518V1.519h6.779l.947 2.472C12.676 1.924 15.988.892 19.175.892z"/>
    </symbol>
    <symbol id="icon-Vector-r2" viewBox="0 0 24 32">
      <path d="M21.523 9.72c-1.821 0-3.485.107-4.992.317a24.45 24.45 0 0 0-5.054 1.315l.169-.056v20.075H2.502V1.52h6.779l1.365 3.52c1.821-1.467 3.608-2.515 5.36-3.147 1.622-.6 3.496-.947 5.451-.947h.07-.004v8.773z"/>
    </symbol>
    <symbol id="icon-Vector-T" viewBox="0 0 21 32">
      <path d="M20.531 29.939a9.926 9.926 0 0 1-2.957 1.37l-.071.017a12.634 12.634 0 0 1-3.358.465h-.004c-2.97 0-5.184-.646-6.641-1.935-1.457-1.316-2.187-3.194-2.187-5.632V12.789H1.74V9.721l4.499-1.809 2.016-6.43h4.373v6.133h6.724v5.171h-6.724v9.668c0 1.485.237 2.537.715 3.153.476.617 1.19.924 2.144.924 1.233 0 2.534-.363 3.908-1.092l1.135 4.497z"/>
    </symbol>
    <symbol id="icon-Vector-R" viewBox="0 0 30 32">
      <path d="M12.43 20.199H8.108v11.262H.001V.832h12.251c4.384 0 7.582.752 9.593 2.254 2.011 1.47 3.017 3.797 3.017 6.981 0 4.144-1.518 6.921-4.549 8.331l8.601 13.063h-9.367l-7.118-11.262zm-4.323-5.63h4.144c1.591 0 2.731-.329 3.422-.99.72-.663 1.081-1.682 1.081-3.063 0-1.44-.345-2.478-1.035-3.109-.69-.629-1.847-.944-3.467-.944H8.108v8.105z"/>
    </symbol>
  </defs>
</svg>
